<mxfile host="app.diagrams.net" agent="Mozilla/5.0 (Windows NT 10.0; Win64; x64) AppleWebKit/537.36 (KHTML, like Gecko) Chrome/132.0.0.0 Safari/537.36 Edg/132.0.0.0" version="26.0.7">
  <diagram name="Page-1" id="potVL8x7pgaLtUZjD1l3">
    <mxGraphModel dx="976" dy="418" grid="1" gridSize="10" guides="1" tooltips="1" connect="1" arrows="1" fold="1" page="1" pageScale="1" pageWidth="850" pageHeight="1100" math="0" shadow="0">
      <root>
        <mxCell id="0" />
        <mxCell id="1" parent="0" />
        <mxCell id="amuqSX02oVc7hGXdB9N1-1" value="&lt;p style=&quot;margin:0px;margin-top:4px;text-align:center;&quot;&gt;&lt;b&gt;Hệ thống&lt;/b&gt;&lt;/p&gt;&lt;hr size=&quot;1&quot; style=&quot;border-style:solid;&quot;&gt;&lt;div style=&quot;height:2px;&quot;&gt;&lt;/div&gt;" style="verticalAlign=top;align=left;overflow=fill;html=1;whiteSpace=wrap;" vertex="1" parent="1">
          <mxGeometry width="260" height="360" as="geometry" />
        </mxCell>
        <mxCell id="amuqSX02oVc7hGXdB9N1-2" value="&lt;p style=&quot;margin:0px;margin-top:4px;text-align:center;&quot;&gt;&lt;b&gt;Người dùng&lt;/b&gt;&lt;/p&gt;&lt;hr size=&quot;1&quot; style=&quot;border-style:solid;&quot;&gt;&lt;div style=&quot;height:2px;&quot;&gt;&lt;/div&gt;" style="verticalAlign=top;align=left;overflow=fill;html=1;whiteSpace=wrap;" vertex="1" parent="1">
          <mxGeometry x="260" width="380" height="360" as="geometry" />
        </mxCell>
        <mxCell id="amuqSX02oVc7hGXdB9N1-3" value="" style="ellipse;html=1;shape=startState;fillColor=#000000;strokeColor=#FF0500;" vertex="1" parent="1">
          <mxGeometry x="20" y="45" width="30" height="30" as="geometry" />
        </mxCell>
        <mxCell id="amuqSX02oVc7hGXdB9N1-4" value="" style="edgeStyle=orthogonalEdgeStyle;rounded=0;orthogonalLoop=1;jettySize=auto;html=1;strokeColor=#FF0500;" edge="1" parent="1" source="amuqSX02oVc7hGXdB9N1-3" target="amuqSX02oVc7hGXdB9N1-6">
          <mxGeometry relative="1" as="geometry" />
        </mxCell>
        <mxCell id="amuqSX02oVc7hGXdB9N1-5" value="" style="edgeStyle=orthogonalEdgeStyle;rounded=0;orthogonalLoop=1;jettySize=auto;html=1;strokeColor=#FF0500;" edge="1" parent="1" source="amuqSX02oVc7hGXdB9N1-6" target="amuqSX02oVc7hGXdB9N1-8">
          <mxGeometry relative="1" as="geometry" />
        </mxCell>
        <mxCell id="amuqSX02oVc7hGXdB9N1-6" value="Thêm báo cáo doanh thu" style="rounded=1;whiteSpace=wrap;html=1;arcSize=40;fontColor=#000000;fillColor=#ffffc0;strokeColor=#FF0500;" vertex="1" parent="1">
          <mxGeometry x="100" y="40" width="120" height="40" as="geometry" />
        </mxCell>
        <mxCell id="amuqSX02oVc7hGXdB9N1-7" style="edgeStyle=orthogonalEdgeStyle;rounded=0;orthogonalLoop=1;jettySize=auto;html=1;entryX=0.5;entryY=0;entryDx=0;entryDy=0;strokeColor=#FF0500;" edge="1" parent="1" source="amuqSX02oVc7hGXdB9N1-8" target="amuqSX02oVc7hGXdB9N1-10">
          <mxGeometry relative="1" as="geometry">
            <Array as="points">
              <mxPoint x="360" y="100" />
              <mxPoint x="160" y="100" />
            </Array>
          </mxGeometry>
        </mxCell>
        <mxCell id="amuqSX02oVc7hGXdB9N1-8" value="Hiển thị biểu mẫu đăng ký" style="rounded=1;whiteSpace=wrap;html=1;arcSize=40;fontColor=#000000;fillColor=#ffffc0;strokeColor=#FF0500;" vertex="1" parent="1">
          <mxGeometry x="300" y="40" width="120" height="40" as="geometry" />
        </mxCell>
        <mxCell id="amuqSX02oVc7hGXdB9N1-9" value="" style="edgeStyle=orthogonalEdgeStyle;rounded=0;orthogonalLoop=1;jettySize=auto;html=1;strokeColor=#FF0500;entryX=0.5;entryY=0;entryDx=0;entryDy=0;" edge="1" parent="1" source="amuqSX02oVc7hGXdB9N1-10" target="amuqSX02oVc7hGXdB9N1-15">
          <mxGeometry relative="1" as="geometry">
            <mxPoint x="300" y="140" as="targetPoint" />
          </mxGeometry>
        </mxCell>
        <mxCell id="amuqSX02oVc7hGXdB9N1-10" value="Nhập thông tin&lt;br&gt;báo cáo doanh thu" style="rounded=1;whiteSpace=wrap;html=1;arcSize=40;fontColor=#000000;fillColor=#ffffc0;strokeColor=#FF0500;" vertex="1" parent="1">
          <mxGeometry x="100" y="120" width="120" height="40" as="geometry" />
        </mxCell>
        <mxCell id="amuqSX02oVc7hGXdB9N1-11" value="Tên ưu đãi, thời gian bắt đầu / kết thúc ưu đãi, nội dung ưu đãi,&lt;div&gt;phạm vị ưu đãi&lt;/div&gt;" style="whiteSpace=wrap;html=1;shape=mxgraph.basic.document;align=center;strokeColor=#000000;" vertex="1" parent="1">
          <mxGeometry x="100" y="200" width="120" height="120" as="geometry" />
        </mxCell>
        <mxCell id="amuqSX02oVc7hGXdB9N1-12" value="" style="endArrow=none;dashed=1;html=1;dashPattern=1 3;strokeWidth=2;rounded=0;" edge="1" parent="1">
          <mxGeometry width="50" height="50" relative="1" as="geometry">
            <mxPoint x="159.83" y="200" as="sourcePoint" />
            <mxPoint x="159.83" y="160" as="targetPoint" />
          </mxGeometry>
        </mxCell>
        <mxCell id="amuqSX02oVc7hGXdB9N1-13" value="" style="edgeStyle=orthogonalEdgeStyle;rounded=0;orthogonalLoop=1;jettySize=auto;html=1;strokeColor=#FF0500;" edge="1" parent="1" source="amuqSX02oVc7hGXdB9N1-15" target="amuqSX02oVc7hGXdB9N1-17">
          <mxGeometry relative="1" as="geometry" />
        </mxCell>
        <mxCell id="amuqSX02oVc7hGXdB9N1-14" value="" style="edgeStyle=orthogonalEdgeStyle;rounded=0;orthogonalLoop=1;jettySize=auto;html=1;strokeColor=#FF0500;" edge="1" parent="1" source="amuqSX02oVc7hGXdB9N1-15" target="amuqSX02oVc7hGXdB9N1-21">
          <mxGeometry relative="1" as="geometry" />
        </mxCell>
        <mxCell id="amuqSX02oVc7hGXdB9N1-15" value="Xác nhận&lt;br&gt;thêm&amp;nbsp;&lt;span style=&quot;background-color: transparent; color: light-dark(rgb(0, 0, 0), rgb(237, 237, 237));&quot;&gt;báo cáo&lt;/span&gt;&lt;div&gt;&lt;span style=&quot;background-color: transparent; color: light-dark(rgb(0, 0, 0), rgb(237, 237, 237));&quot;&gt;doanh thu&lt;/span&gt;&lt;/div&gt;" style="rhombus;whiteSpace=wrap;html=1;fontColor=#000000;fillColor=#ffffc0;strokeColor=#FF0500;" vertex="1" parent="1">
          <mxGeometry x="300" y="160" width="120" height="80" as="geometry" />
        </mxCell>
        <mxCell id="amuqSX02oVc7hGXdB9N1-16" value="" style="edgeStyle=orthogonalEdgeStyle;rounded=0;orthogonalLoop=1;jettySize=auto;html=1;strokeColor=#FF0500;" edge="1" parent="1" source="amuqSX02oVc7hGXdB9N1-17" target="amuqSX02oVc7hGXdB9N1-20">
          <mxGeometry relative="1" as="geometry" />
        </mxCell>
        <mxCell id="amuqSX02oVc7hGXdB9N1-17" value="Lưu thông tin báo cáo doanh thu vào CSDL" style="rounded=1;whiteSpace=wrap;html=1;arcSize=40;fontColor=#000000;fillColor=#ffffc0;strokeColor=#FF0500;" vertex="1" parent="1">
          <mxGeometry x="300" y="280" width="120" height="40" as="geometry" />
        </mxCell>
        <mxCell id="amuqSX02oVc7hGXdB9N1-18" style="edgeStyle=orthogonalEdgeStyle;rounded=0;orthogonalLoop=1;jettySize=auto;html=1;entryX=1;entryY=0.5;entryDx=0;entryDy=0;strokeColor=#FF0500;" edge="1" parent="1" source="amuqSX02oVc7hGXdB9N1-20" target="amuqSX02oVc7hGXdB9N1-8">
          <mxGeometry relative="1" as="geometry">
            <Array as="points">
              <mxPoint x="620" y="300" />
              <mxPoint x="620" y="60" />
            </Array>
          </mxGeometry>
        </mxCell>
        <mxCell id="amuqSX02oVc7hGXdB9N1-19" style="edgeStyle=orthogonalEdgeStyle;rounded=0;orthogonalLoop=1;jettySize=auto;html=1;entryX=1;entryY=0.5;entryDx=0;entryDy=0;strokeColor=#FF0500;" edge="1" parent="1" source="amuqSX02oVc7hGXdB9N1-20" target="amuqSX02oVc7hGXdB9N1-21">
          <mxGeometry relative="1" as="geometry" />
        </mxCell>
        <mxCell id="amuqSX02oVc7hGXdB9N1-20" value="Thêm báo cáo&lt;br&gt;doanh thu khác" style="rhombus;whiteSpace=wrap;html=1;fontColor=#000000;fillColor=#ffffc0;strokeColor=#FF0500;" vertex="1" parent="1">
          <mxGeometry x="460" y="260" width="120" height="80" as="geometry" />
        </mxCell>
        <mxCell id="amuqSX02oVc7hGXdB9N1-21" value="" style="ellipse;html=1;shape=endState;fillColor=#000000;strokeColor=#ff0000;" vertex="1" parent="1">
          <mxGeometry x="470" y="185" width="30" height="30" as="geometry" />
        </mxCell>
        <mxCell id="amuqSX02oVc7hGXdB9N1-22" value="Đúng" style="text;html=1;align=center;verticalAlign=middle;whiteSpace=wrap;rounded=0;fontFamily=Helvetica;fontSize=12;fontColor=#000000;" vertex="1" parent="1">
          <mxGeometry x="560" y="270" width="60" height="30" as="geometry" />
        </mxCell>
        <mxCell id="amuqSX02oVc7hGXdB9N1-23" value="Đúng" style="text;html=1;align=center;verticalAlign=middle;whiteSpace=wrap;rounded=0;fontFamily=Helvetica;fontSize=12;fontColor=#000000;" vertex="1" parent="1">
          <mxGeometry x="350" y="230" width="60" height="30" as="geometry" />
        </mxCell>
        <mxCell id="amuqSX02oVc7hGXdB9N1-24" value="Sai" style="text;html=1;align=center;verticalAlign=middle;resizable=0;points=[];autosize=1;strokeColor=none;fillColor=none;" vertex="1" parent="1">
          <mxGeometry x="410" y="170" width="40" height="30" as="geometry" />
        </mxCell>
        <mxCell id="amuqSX02oVc7hGXdB9N1-25" value="Sai" style="text;html=1;align=center;verticalAlign=middle;resizable=0;points=[];autosize=1;strokeColor=none;fillColor=none;" vertex="1" parent="1">
          <mxGeometry x="480" y="240" width="40" height="30" as="geometry" />
        </mxCell>
      </root>
    </mxGraphModel>
  </diagram>
</mxfile>
